<svg xmlns="http://www.w3.org/2000/svg" viewBox="0 0 512 512">
  <defs>
    <linearGradient id="bg" x1="0%" y1="0%" x2="100%" y2="100%">
      <stop offset="0%" style="stop-color:#4F46E5"/>
      <stop offset="100%" style="stop-color:#7C3AED"/>
    </linearGradient>
  </defs>
  <rect width="512" height="512" rx="112" fill="url(#bg)"/>
  <!-- Two overlapping people silhouettes representing collaboration -->
  <!-- Person 1 (left) -->
  <circle cx="196" cy="180" r="44" fill="rgba(255,255,255,0.9)"/>
  <path d="M120 310 C120 265 155 240 196 240 C237 240 272 265 272 310 L272 320 C272 328 265 335 257 335 L135 335 C127 335 120 328 120 320 Z" fill="rgba(255,255,255,0.9)"/>
  <!-- Person 2 (right) -->
  <circle cx="316" cy="180" r="44" fill="rgba(255,255,255,0.65)"/>
  <path d="M240 310 C240 265 275 240 316 240 C357 240 392 265 392 310 L392 320 C392 328 385 335 377 335 L255 335 C247 335 240 328 240 320 Z" fill="rgba(255,255,255,0.65)"/>
  <!-- Connection dots -->
  <circle cx="206" cy="390" r="10" fill="rgba(255,255,255,0.5)"/>
  <circle cx="256" cy="390" r="14" fill="rgba(255,255,255,0.7)"/>
  <circle cx="306" cy="390" r="10" fill="rgba(255,255,255,0.5)"/>
  <line x1="216" y1="390" x2="242" y2="390" stroke="rgba(255,255,255,0.4)" stroke-width="3"/>
  <line x1="270" y1="390" x2="296" y2="390" stroke="rgba(255,255,255,0.4)" stroke-width="3"/>
</svg>
